<svg width="24" height="24" viewBox="0 0 24 24" fill="none" xmlns="http://www.w3.org/2000/svg">
<path d="M12 0C5.36842 0 0 4.24558 0 9.54006C0 16.1332 8.58947 22.1769 11.2421 23.7752C11.6842 24.0749 12.3158 24.0749 12.8211 23.7752C15.4737 22.127 24 16.1332 24 9.54006C24 4.24558 18.6316 0 12 0ZM12 13.486C9.22105 13.486 6.94737 11.6878 6.94737 9.49012C6.94737 7.2924 9.22105 5.49428 12 5.49428C14.7789 5.49428 17.0526 7.2924 17.0526 9.49012C17.0526 11.6878 14.7789 13.486 12 13.486Z" fill="var(--PrimaryColor)"/>
</svg>
